<svg width="22" height="22" viewBox="0 0 22 22" fill="none" xmlns="http://www.w3.org/2000/svg">
<path fill-rule="evenodd" clip-rule="evenodd" d="M5.76153 1.02393C3.14476 1.02393 1.02344 3.14524 1.02344 5.76202V16.2382C1.02344 18.855 3.14476 20.9763 5.76153 20.9763H16.2377C18.8545 20.9763 20.9758 18.855 20.9758 16.2382V5.76202C20.9758 3.14524 18.8545 1.02393 16.2377 1.02393H5.76153ZM0.0234375 5.76202C0.0234375 2.59296 2.59247 0.0239258 5.76153 0.0239258H16.2377C19.4068 0.0239258 21.9758 2.59296 21.9758 5.76202V16.2382C21.9758 19.4073 19.4068 21.9763 16.2377 21.9763H5.76153C2.59247 21.9763 0.0234375 19.4073 0.0234375 16.2382V5.76202ZM11.5863 7.30404C10.8184 7.19017 10.0342 7.32133 9.34523 7.67884C8.65622 8.03636 8.09748 8.60203 7.74849 9.29539C7.3995 9.98876 7.27802 10.7745 7.40135 11.5409C7.52467 12.3073 7.8865 13.0153 8.43539 13.5642C8.98428 14.113 9.69226 14.4749 10.4586 14.5982C11.225 14.7215 12.0108 14.6 12.7042 14.2511C13.3975 13.9021 13.9632 13.3433 14.3207 12.6543C14.6782 11.9653 14.8094 11.1811 14.6955 10.4133C14.5794 9.63003 14.2144 8.90492 13.6545 8.34503C13.0946 7.78515 12.3695 7.42018 11.5863 7.30404ZM8.88466 6.79122C9.76037 6.33683 10.7571 6.17014 11.733 6.31485C12.7284 6.46247 13.65 6.92633 14.3616 7.63793C15.0732 8.34952 15.5371 9.27112 15.6847 10.2666C15.8294 11.2425 15.6627 12.2392 15.2083 13.1149C14.7539 13.9906 14.035 14.7007 13.1537 15.1443C12.2725 15.5878 11.2738 15.7422 10.2998 15.5855C9.32573 15.4288 8.4259 14.9689 7.72828 14.2713C7.03067 13.5736 6.57078 12.6738 6.41405 11.6998C6.25731 10.7257 6.4117 9.72705 6.85525 8.8458C7.29881 7.96456 8.00895 7.24561 8.88466 6.79122ZM16.7615 4.73821C16.4854 4.73821 16.2615 4.96207 16.2615 5.23821C16.2615 5.51435 16.4854 5.73821 16.7615 5.73821H16.7715C17.0477 5.73821 17.2715 5.51435 17.2715 5.23821C17.2715 4.96207 17.0477 4.73821 16.7715 4.73821H16.7615Z" fill="white"/>
</svg>
