<svg width="55" height="70" viewBox="0 0 55 70" fill="none" xmlns="http://www.w3.org/2000/svg">
<path d="M37.1495 0C36.3817 2.86417 35.6193 5.72304 34.8515 8.5872C26.1386 15.6444 17.4257 22.7069 8.71287 29.764L39.7525 40.8819L20.1485 56.7645L23.4158 48.8232C25.5941 46.8802 27.7723 44.9425 29.9505 42.9995C19.9688 39.2936 9.98168 35.5877 0 31.8817C12.3832 21.2562 24.7663 10.6255 37.1495 0Z" fill="#476072"/>
<path d="M17.8505 70C18.6183 67.1358 19.3807 64.277 20.1485 61.4128C28.8614 54.3556 37.5743 47.2931 46.2871 40.236C35.9406 36.53 25.5941 32.8241 15.2475 29.1181C21.7822 23.8239 28.3168 18.5297 34.8515 13.2355L31.5842 21.1768C29.4059 23.1198 27.2277 25.0575 25.0495 27.0005C35.0312 30.7064 45.0183 34.4123 55 38.1183C42.6168 48.7438 30.2337 59.3745 17.8505 70Z" fill="#476072"/>
</svg>
