<svg width="30" height="43" viewBox="0 0 30 43" fill="none" xmlns="http://www.w3.org/2000/svg">
<path d="M15 20.3571C13.5792 20.3571 12.2166 19.7927 11.2119 18.7881C10.2073 17.7834 9.64286 16.4208 9.64286 15C9.64286 13.5792 10.2073 12.2166 11.2119 11.2119C12.2166 10.2073 13.5792 9.64286 15 9.64286C16.4208 9.64286 17.7834 10.2073 18.7881 11.2119C19.7927 12.2166 20.3571 13.5792 20.3571 15C20.3571 15.7035 20.2186 16.4001 19.9494 17.0501C19.6801 17.7001 19.2855 18.2906 18.7881 18.7881C18.2906 19.2855 17.7 19.6801 17.0501 19.9494C16.4001 20.2186 15.7035 20.3571 15 20.3571ZM15 0C11.0218 0 7.20644 1.58035 4.3934 4.3934C1.58035 7.20644 0 11.0218 0 15C0 26.25 15 42.8571 15 42.8571C15 42.8571 30 26.25 30 15C30 11.0218 28.4196 7.20644 25.6066 4.3934C22.7936 1.58035 18.9782 0 15 0Z" fill="black"/>
</svg>
