<svg width="28" height="46" viewBox="0 0 28 46" fill="none" xmlns="http://www.w3.org/2000/svg">
<path d="M27.4695 44.7423C27.4609 44.7755 27.4516 44.8085 27.4414 44.8412C27.3225 45.2241 27.1245 45.4555 26.9009 45.5888C26.6027 45.7665 26.1855 45.8136 25.6107 45.5512C25.0359 45.2886 24.3377 44.6964 23.672 43.6627C18.9587 36.3441 14.4064 29.3229 11.1047 23.9118C10.3065 22.6036 9.58326 21.3918 8.94716 20.2916C11.7414 19.9896 14.0084 18.6222 15.4869 16.518C16.0464 17.6319 16.649 18.8718 17.2904 20.2243C20.0184 25.9772 23.4209 33.6843 26.9835 41.6888C27.4867 42.8192 27.6125 43.7527 27.5322 44.4058C27.5187 44.5191 27.4977 44.6315 27.4696 44.7423L27.4695 44.7423ZM14.7101 15.0018C13.4158 17.3455 11.1958 18.753 8.11454 18.8226C7.78606 18.231 7.48798 17.6786 7.23254 17.1805C6.83105 16.3978 6.52549 15.736 6.32973 15.2285C7.73041 15.4572 9.16896 15.1207 10.3509 14.4182C11.431 13.7762 12.3293 12.792 12.7474 11.6103C13.0414 12.0345 13.3888 12.5974 13.7763 13.2796C14.065 13.7881 14.3787 14.3691 14.7101 15.0018ZM11.4104 10.9581C11.1634 11.8117 10.518 12.5675 9.6363 13.0916C8.46089 13.7903 6.93369 14.002 5.65764 13.4368C2.82974 12.1843 0.999794 10.0472 0.36549 7.59287C-0.195153 5.42344 0.16404 2.97585 1.714 0.549282C1.48047 2.6323 3.08329 5.04704 4.61925 5.62316C3.84873 4.46833 3.22447 3.11622 2.98467 1.76585C4.54331 3.07157 6.36522 3.51358 7.81253 4.0799C8.84971 4.48571 9.69709 4.94442 10.331 5.78286C10.9649 6.6213 11.4308 7.89667 11.5187 10.0767C11.5304 10.3737 11.4938 10.6716 11.4104 10.9581Z" fill="white"/>
</svg>
