<svg width="82" height="82" viewBox="0 0 82 82" fill="none" xmlns="http://www.w3.org/2000/svg">
<path d="M73.2143 0H8.78571C6.4556 0 4.22092 0.925635 2.57328 2.57328C0.925635 4.22092 0 6.4556 0 8.78571L0 73.2143C0 75.5444 0.925635 77.7791 2.57328 79.4267C4.22092 81.0744 6.4556 82 8.78571 82H33.9074V54.1218H22.3761V41H33.9074V30.9989C33.9074 19.6233 40.6797 13.3396 51.0523 13.3396C56.0199 13.3396 61.2145 14.2255 61.2145 14.2255V25.3907H55.4909C49.8516 25.3907 48.0926 28.8904 48.0926 32.4797V41H60.6818L58.6684 54.1218H48.0926V82H73.2143C75.5444 82 77.7791 81.0744 79.4267 79.4267C81.0744 77.7791 82 75.5444 82 73.2143V8.78571C82 6.4556 81.0744 4.22092 79.4267 2.57328C77.7791 0.925635 75.5444 0 73.2143 0Z" fill="white"/>
</svg>
