<svg width="82" height="82" viewBox="0 0 82 82" fill="none" xmlns="http://www.w3.org/2000/svg">
<path d="M41.0091 19.9762C29.3746 19.9762 19.9901 29.3628 19.9901 41C19.9901 52.6372 29.3746 62.0238 41.0091 62.0238C52.6437 62.0238 62.0282 52.6372 62.0282 41C62.0282 29.3628 52.6437 19.9762 41.0091 19.9762ZM41.0091 54.6682C33.4906 54.6682 27.344 48.5385 27.344 41C27.344 33.4615 33.4723 27.3318 41.0091 27.3318C48.546 27.3318 54.6743 33.4615 54.6743 41C54.6743 48.5385 48.5277 54.6682 41.0091 54.6682ZM67.7906 19.1163C67.7906 21.8426 65.5954 24.02 62.888 24.02C60.1623 24.02 57.9854 21.8243 57.9854 19.1163C57.9854 16.4082 60.1806 14.2125 62.888 14.2125C65.5954 14.2125 67.7906 16.4082 67.7906 19.1163ZM81.7119 24.0932C81.4009 17.5244 79.9008 11.7058 75.0897 6.91186C70.2968 2.11793 64.4795 0.617539 57.9122 0.288185C51.1437 -0.0960616 30.8563 -0.0960616 24.0878 0.288185C17.5388 0.599241 11.7215 2.09963 6.91032 6.89356C2.09916 11.6875 0.617401 17.5061 0.28812 24.0749C-0.0960402 30.8449 -0.0960402 51.1368 0.28812 57.9068C0.599108 64.4756 2.09916 70.2942 6.91032 75.0881C11.7215 79.8821 17.5205 81.3825 24.0878 81.7118C30.8563 82.0961 51.1437 82.0961 57.9122 81.7118C64.4795 81.4008 70.2968 79.9004 75.0897 75.0881C79.8825 70.2942 81.3826 64.4756 81.7119 57.9068C82.096 51.1368 82.096 30.8632 81.7119 24.0932ZM72.9677 65.1709C71.5408 68.7572 68.7785 71.5201 65.1747 72.9656C59.7781 75.1064 46.9728 74.6124 41.0091 74.6124C35.0455 74.6124 22.2219 75.0881 16.8436 72.9656C13.2581 71.5384 10.4958 68.7755 9.05064 65.1709C6.91032 59.7732 7.40424 46.965 7.40424 41C7.40424 35.035 6.92861 22.2085 9.05064 16.8291C10.4775 13.2428 13.2398 10.4799 16.8436 9.03436C22.2402 6.89356 35.0455 7.38759 41.0091 7.38759C46.9728 7.38759 59.7964 6.91186 65.1747 9.03436C68.7602 10.4616 71.5225 13.2245 72.9677 16.8291C75.108 22.2268 74.6141 35.035 74.6141 41C74.6141 46.965 75.108 59.7915 72.9677 65.1709Z" fill="white"/>
</svg>
