<svg width="40" height="48" viewBox="0 0 40 48" fill="none" xmlns="http://www.w3.org/2000/svg">
<path d="M20 24C26.3125 24 31.4286 18.6281 31.4286 12C31.4286 5.37188 26.3125 0 20 0C13.6875 0 8.57143 5.37188 8.57143 12C8.57143 18.6281 13.6875 24 20 24ZM28.5536 27.0562L24.2857 45L21.4286 32.25L24.2857 27H15.7143L18.5714 32.25L15.7143 45L11.4464 27.0562C5.08036 27.375 0 32.8406 0 39.6V43.5C0 45.9844 1.91964 48 4.28571 48H35.7143C38.0804 48 40 45.9844 40 43.5V39.6C40 32.8406 34.9196 27.375 28.5536 27.0562Z" fill="white"/>
</svg>
