<svg width="22" height="22" viewBox="0 0 22 22" fill="none" xmlns="http://www.w3.org/2000/svg">
<path d="M20.6291 5.81132C19.248 5.80967 17.9239 5.26248 16.9474 4.28977C15.9708 3.31706 15.4214 1.99826 15.4197 0.622641C15.4197 0.457507 15.3539 0.299135 15.2366 0.182367C15.1194 0.0655995 14.9604 0 14.7946 0H10.6271C10.4613 0 10.3023 0.0655995 10.1851 0.182367C10.0679 0.299135 10.002 0.457507 10.002 0.622641V14.3208C10.0017 14.7293 9.89145 15.1302 9.68263 15.4818C9.47381 15.8334 9.1741 16.1227 8.81477 16.3196C8.45544 16.5165 8.04964 16.6138 7.63971 16.6013C7.22977 16.5888 6.83072 16.467 6.48415 16.2485C6.13759 16.0301 5.85622 15.723 5.66939 15.3594C5.48256 14.9957 5.39711 14.5888 5.42196 14.1811C5.4468 13.7733 5.58103 13.3797 5.81064 13.0412C6.04026 12.7027 6.35684 12.4318 6.72738 12.2567C6.83428 12.2062 6.9246 12.1266 6.98786 12.027C7.05111 11.9275 7.08471 11.8121 7.08475 11.6942V7.26415C7.08465 7.17366 7.06476 7.08427 7.02644 7.00221C6.98813 6.92016 6.93232 6.84741 6.8629 6.78903C6.79347 6.73065 6.71211 6.68804 6.62447 6.66418C6.53683 6.64032 6.44502 6.63577 6.35543 6.65085C2.72971 7.29321 0 10.5901 0 14.3208C0 16.3574 0.812288 18.3107 2.25817 19.7508C3.70405 21.1909 5.66509 22 7.70987 22C9.75465 22 11.7157 21.1909 13.1616 19.7508C14.6075 18.3107 15.4197 16.3574 15.4197 14.3208V9.85123C17.0092 10.7444 18.8041 11.2117 20.6291 11.2075C20.7949 11.2075 20.9539 11.1419 21.0711 11.0252C21.1884 10.9084 21.2542 10.75 21.2542 10.5849V6.43396C21.2542 6.26883 21.1884 6.11046 21.0711 5.99369C20.9539 5.87692 20.7949 5.81132 20.6291 5.81132ZM20.004 9.94151C18.2575 9.83041 16.5781 9.23002 15.1593 8.20953C15.0657 8.14263 14.9555 8.10275 14.8407 8.09431C14.7258 8.08586 14.6109 8.10916 14.5085 8.16165C14.4061 8.21414 14.3203 8.29377 14.2605 8.39176C14.2007 8.48975 14.1692 8.6023 14.1695 8.71698V14.3208C14.1695 16.0271 13.4889 17.6637 12.2775 18.8703C11.0661 20.0769 9.42307 20.7547 7.70987 20.7547C5.99667 20.7547 4.35364 20.0769 3.14223 18.8703C1.93081 17.6637 1.25025 16.0271 1.25025 14.3208C1.25025 11.4442 3.17459 8.87472 5.8345 8.05491V11.3269C5.31136 11.652 4.8825 12.1076 4.59034 12.6485C4.29818 13.1893 4.15283 13.7968 4.16867 14.4108C4.18451 15.0248 4.36099 15.624 4.68065 16.1493C5.00032 16.6745 5.4521 17.1075 5.99131 17.4054C6.53052 17.7034 7.13849 17.856 7.75508 17.8482C8.37167 17.8403 8.97553 17.6723 9.50693 17.3608C10.0383 17.0492 10.4789 16.6048 10.785 16.0716C11.0911 15.5385 11.2521 14.9349 11.2522 14.3208V1.24528H14.1997C14.3463 2.72897 15.0049 4.1161 16.0633 5.17029C17.1217 6.22448 18.5144 6.88049 20.004 7.02651V9.94151Z" fill="white"/>
</svg>
