<svg width="54" height="68" viewBox="0 0 54 68" fill="none" xmlns="http://www.w3.org/2000/svg">
<path d="M36.4741 0C35.7202 2.78233 34.9717 5.55952 34.2178 8.34185C25.6634 15.1974 17.1089 22.0581 8.55446 28.9136L39.0297 39.7138L19.7822 55.1426L22.9901 47.4282C25.1287 45.5408 27.2673 43.6584 29.4059 41.771C19.6057 38.1709 9.8002 34.5709 0 30.9708C12.158 20.6489 24.316 10.3219 36.4741 0Z" fill="white"/>
<path d="M17.5259 68C18.2798 65.2177 19.0283 62.4405 19.7822 59.6581C28.3366 52.8026 36.8911 45.9419 45.4455 39.0864C35.2871 35.4863 25.1287 31.8862 14.9703 28.2862C21.3861 23.1432 27.802 18.0003 34.2178 12.8574L31.0099 20.5718C28.8713 22.4592 26.7327 24.3416 24.5941 26.229C34.3943 29.8291 44.1998 33.4291 54 37.0292C41.842 47.3511 29.684 57.6781 17.5259 68Z" fill="white"/>
</svg>
